<svg width="168" height="41" viewBox="0 0 168 41" fill="none" xmlns="http://www.w3.org/2000/svg">
<path d="M76.1085 39.7753C75.4846 39.7753 74.8602 39.5384 74.3846 39.0632L67.038 31.7334C66.0883 30.7844 66.0883 29.2429 67.0414 28.2967C67.9935 27.3464 69.5364 27.3464 70.4885 28.2967L77.8349 35.6253C78.7846 36.5753 78.7846 38.1168 77.832 39.0632C77.3554 39.5384 76.7325 39.7753 76.1085 39.7753Z" fill="#E51236"/>
<path d="M147.721 40.888C136.543 40.888 127.448 31.7192 127.448 20.4469C127.448 16.6567 128.483 12.9562 130.443 9.7453C131.143 8.59667 132.641 8.2335 133.796 8.93064C134.943 9.62947 135.311 11.1254 134.611 12.2718C133.114 14.7223 132.325 17.5471 132.325 20.4469C132.325 29.0359 139.229 36.0259 147.721 36.0259C156.213 36.0259 163.124 29.0359 163.124 20.4469C163.124 11.858 156.212 4.86215 147.721 4.86215C145.24 4.86433 142.874 5.44154 140.688 6.58125C139.492 7.20576 138.02 6.73955 137.399 5.55037C136.774 4.36071 137.237 2.89186 138.43 2.26904C141.277 0.787394 144.491 0.00217179 147.719 0C158.903 0 168 9.17099 168 20.4469C168 31.7228 158.903 40.888 147.721 40.888Z" fill="#E51236"/>
<path d="M66.2215 1.17773H48.8484C47.8355 1.17773 46.9686 1.79114 46.5997 2.66589C46.4674 2.96657 46.3911 3.29668 46.3911 3.64489V37.2748C46.3911 38.6187 47.4814 39.7065 48.8295 39.7065C50.1776 39.7065 51.2676 38.6187 51.2676 37.2748V6.0411H66.2215C70.3095 6.0411 73.6368 9.35669 73.6368 13.4358C73.6368 17.5149 70.3095 20.8315 66.2215 20.8315H57.6827C56.3346 20.8315 55.2441 21.9191 55.2441 23.2629C55.2441 24.6068 56.3346 25.6943 57.6827 25.6943H66.2215C72.9979 25.6943 78.5136 20.1946 78.5136 13.4358C78.5136 6.67695 72.9979 1.17773 66.2215 1.17773Z" fill="#E51236"/>
<path d="M117.504 20.2305H107.627C106.281 20.2305 105.188 21.3178 105.188 22.6621C105.188 24.0065 106.281 25.0929 107.627 25.0929H115.064V37.3772C115.064 38.7204 116.155 39.8092 117.504 39.8092C118.852 39.8092 119.942 38.7204 119.942 37.3772V22.6621C119.942 21.3178 118.849 20.2305 117.504 20.2305" fill="#E51236"/>
<path d="M105.441 41.0003C94.2581 41.0003 85.1626 31.8291 85.1626 20.5529C85.1626 9.27676 94.2578 0.111328 105.441 0.111328C109.843 0.111328 114.033 1.51189 117.557 4.16389C118.63 4.97203 118.842 6.49832 118.034 7.56877C117.223 8.63995 115.694 8.85519 114.617 8.04439C111.946 6.03597 108.774 4.97372 105.441 4.97372C96.9493 4.97372 90.0384 11.9633 90.0384 20.5529C90.0384 29.1426 96.9493 36.1384 105.441 36.1384C106.515 36.1384 107.598 36.024 108.655 35.7984C109.98 35.5059 111.27 36.3532 111.551 37.6671C111.832 38.9803 110.994 40.2711 109.674 40.5525C108.284 40.8502 106.858 41.0003 105.441 41.0003" fill="#E51236"/>
<path d="M19.7858 39.7031C18.4392 39.7031 17.3477 38.6152 17.3477 37.2716V22.7505C17.3477 21.4081 18.4392 20.3203 19.7858 20.3203C21.1324 20.3203 22.2249 21.4081 22.2249 22.7505V37.2716C22.2249 38.6152 21.1326 39.7031 19.7858 39.7031Z" fill="#E51236"/>
<path d="M24.8799 16.4458C24.1812 16.4458 23.4873 16.1468 23.0057 15.5708C22.1429 14.5368 22.2852 13.0059 23.3196 12.1461L35.8184 1.77632C36.8525 0.916771 38.3891 1.05577 39.2507 2.09026C40.1133 3.1221 39.972 4.65346 38.9368 5.5118L26.439 15.884C25.983 16.2609 25.4305 16.4458 24.8799 16.4458Z" fill="#E51236"/>
<path d="M14.9437 16.4449C14.3933 16.4449 13.8413 16.2601 13.3855 15.8832L0.879022 5.51093C-0.155866 4.655 -0.297449 3.121 0.563425 2.0894C1.42406 1.05756 2.96284 0.915907 3.99797 1.77545L16.5045 12.1453C17.5386 13.0026 17.681 14.5359 16.8201 15.5699C16.3375 16.1459 15.6426 16.4449 14.9437 16.4449Z" fill="#E51236"/>
</svg>