<svg width="74" height="74" viewBox="0 0 74 74" fill="none" xmlns="http://www.w3.org/2000/svg">
<path d="M26.114 58.4887C25.8992 58.7036 25.7288 58.9587 25.6125 59.2394C25.4962 59.5201 25.4363 59.821 25.4363 60.1248C25.4363 60.4287 25.4962 60.7295 25.6125 61.0103C25.7288 61.291 25.8992 61.5461 26.114 61.7609C26.3289 61.9758 26.584 62.1462 26.8647 62.2625C27.1454 62.3788 27.4463 62.4386 27.7501 62.4386C28.054 62.4386 28.3549 62.3788 28.6356 62.2625C28.9163 62.1462 29.1714 61.9758 29.3862 61.7609L52.5112 38.6359C52.7262 38.4211 52.8968 38.1661 53.0132 37.8854C53.1296 37.6046 53.1895 37.3037 53.1895 36.9998C53.1895 36.6959 53.1296 36.395 53.0132 36.1143C52.8968 35.8335 52.7262 35.5785 52.5112 35.3637L29.3862 12.2387C28.9523 11.8048 28.3638 11.561 27.7501 11.561C27.1365 11.561 26.548 11.8048 26.114 12.2387C25.6801 12.6726 25.4363 13.2612 25.4363 13.8748C25.4363 14.4885 25.6801 15.077 26.114 15.5109L47.6058 36.9998L26.114 58.4887Z" fill="#001A52"/>
</svg>
