<svg width="74" height="74" viewBox="0 0 74 74" fill="none" xmlns="http://www.w3.org/2000/svg">
<path d="M47.886 58.4887C48.1008 58.7036 48.2712 58.9587 48.3875 59.2394C48.5038 59.5201 48.5637 59.821 48.5637 60.1248C48.5637 60.4287 48.5038 60.7295 48.3875 61.0103C48.2712 61.291 48.1008 61.5461 47.886 61.7609C47.6711 61.9758 47.416 62.1462 47.1353 62.2625C46.8546 62.3788 46.5537 62.4386 46.2499 62.4386C45.946 62.4386 45.6451 62.3788 45.3644 62.2625C45.0837 62.1462 44.8286 61.9758 44.6138 61.7609L21.4888 38.6359C21.2738 38.4211 21.1032 38.1661 20.9868 37.8854C20.8704 37.6046 20.8105 37.3037 20.8105 36.9998C20.8105 36.6959 20.8704 36.395 20.9868 36.1143C21.1032 35.8335 21.2738 35.5785 21.4888 35.3637L44.6138 12.2387C45.0477 11.8048 45.6362 11.561 46.2499 11.561C46.8635 11.561 47.452 11.8048 47.886 12.2387C48.3199 12.6726 48.5637 13.2612 48.5637 13.8748C48.5637 14.4885 48.3199 15.077 47.886 15.5109L26.3942 36.9998L47.886 58.4887Z" fill="#001A52"/>
</svg>
