<svg width="201" height="201" viewBox="0 0 201 201" fill="none" xmlns="http://www.w3.org/2000/svg">
<path d="M100 63C108.339 63 116.597 64.6428 124.301 67.834C132.005 71.0252 139.005 75.7022 144.901 81.5986C150.798 87.495 155.475 94.4952 158.666 102.199C161.857 109.903 163.5 118.161 163.5 126.5C163.5 134.839 161.857 143.097 158.666 150.801C155.475 158.505 150.798 165.505 144.901 171.401C139.005 177.298 132.005 181.975 124.301 185.166C116.597 188.357 108.339 190 100 190C83.1588 190 67.0072 183.31 55.0986 171.401C43.1901 159.493 36.5 143.341 36.5 126.5C36.5 109.659 43.1901 93.5072 55.0986 81.5986C67.0072 69.6901 83.1588 63 100 63ZM122.395 99.7734L92.2783 135.904L77.1074 120.727L76.4004 120.019L64.8525 131.566L65.5596 132.274L92.6064 159.321L93.3809 160.095L94.082 159.254L99.1055 153.227L134.938 110.227L135.579 109.459L134.811 108.818L123.803 99.6455L123.035 99.0049L122.395 99.7734Z" fill="#001A52" stroke="#001A52" stroke-width="2"/>
</svg>
