<svg width="51" height="51" viewBox="0 0 51 51" fill="none" xmlns="http://www.w3.org/2000/svg">
<path d="M25.4996 15.9377C23.6083 15.9377 21.7595 16.4985 20.1869 17.5493C18.6144 18.6 17.3888 20.0935 16.665 21.8408C15.9412 23.5881 15.7519 25.5108 16.1208 27.3658C16.4898 29.2207 17.4005 30.9246 18.7379 32.2619C20.0752 33.5993 21.7791 34.51 23.634 34.879C25.489 35.2479 27.4117 35.0586 29.159 34.3348C30.9063 33.611 32.3998 32.3854 33.4505 30.8128C34.5013 29.2403 35.0621 27.3915 35.0621 25.5002C35.0595 22.9649 34.0511 20.5342 32.2584 18.7414C30.4656 16.9487 28.0349 15.9403 25.4996 15.9377ZM25.4996 31.8752C24.2387 31.8752 23.0062 31.5013 21.9578 30.8008C20.9095 30.1003 20.0924 29.1047 19.6099 27.9398C19.1273 26.7749 19.0011 25.4931 19.2471 24.2565C19.4931 23.0199 20.1002 21.884 20.9918 20.9924C21.8833 20.1008 23.0193 19.4937 24.2559 19.2477C25.4925 19.0017 26.7743 19.128 27.9392 19.6105C29.1041 20.093 30.0997 20.9101 30.8002 21.9584C31.5007 23.0068 31.8746 24.2394 31.8746 25.5002C31.8746 27.191 31.2029 28.8125 30.0074 30.008C28.8118 31.2036 27.1903 31.8752 25.4996 31.8752ZM47.4017 21.3584C47.3573 21.134 47.2651 20.9218 47.1314 20.7361C46.9977 20.5505 46.8256 20.3959 46.6267 20.2827L40.684 16.8959L40.6601 10.1982C40.6594 9.96755 40.6086 9.73978 40.5113 9.53066C40.414 9.32154 40.2724 9.13603 40.0963 8.98696C37.9407 7.16351 35.4582 5.76613 32.781 4.86911C32.5702 4.79775 32.3468 4.77134 32.1251 4.79159C31.9035 4.81183 31.6885 4.87828 31.4941 4.98665L25.4996 8.33751L19.4991 4.98067C19.3046 4.87169 19.0894 4.80474 18.8673 4.78415C18.6453 4.76356 18.4214 4.78979 18.2102 4.86114C15.535 5.76472 13.0554 7.16743 10.9028 8.99493C10.7271 9.14378 10.5856 9.32897 10.4883 9.53772C10.391 9.74648 10.34 9.97386 10.339 10.2042L10.3092 16.9079L4.36646 20.2946C4.16764 20.4078 3.99552 20.5625 3.8618 20.7481C3.72808 20.9337 3.63589 21.146 3.5915 21.3704C3.04763 24.1035 3.04763 26.9169 3.5915 29.6499C3.63589 29.8744 3.72808 30.0866 3.8618 30.2722C3.99552 30.4579 4.16764 30.6125 4.36646 30.7257L10.3092 34.1124L10.3331 40.8102C10.3338 41.0408 10.3846 41.2686 10.4819 41.4777C10.5792 41.6868 10.7208 41.8723 10.8969 42.0214C13.0525 43.8449 15.535 45.2423 18.2122 46.1393C18.423 46.2106 18.6464 46.237 18.8681 46.2168C19.0897 46.1966 19.3047 46.1301 19.4991 46.0217L25.4996 42.6629L31.5001 46.0197C31.7375 46.152 32.0052 46.2207 32.277 46.219C32.4511 46.2189 32.624 46.1906 32.789 46.1353C35.4639 45.2329 37.9435 43.8316 40.0963 42.0055C40.2721 41.8566 40.4135 41.6714 40.5109 41.4627C40.6082 41.2539 40.6591 41.0266 40.6601 40.7962L40.69 34.0925L46.6327 30.7058C46.8315 30.5926 47.0037 30.4379 47.1374 30.2523C47.2711 30.0667 47.3633 29.8544 47.4077 29.63C47.9485 26.8991 47.9465 24.0885 47.4017 21.3584ZM44.4134 28.3132L38.7217 31.5505C38.4724 31.6923 38.2659 31.8988 38.1241 32.1481C38.0085 32.3474 37.887 32.5585 37.7635 32.7577C37.6054 33.009 37.5212 33.2996 37.5204 33.5965L37.4906 40.0213C35.9607 41.2227 34.2563 42.1833 32.4364 42.8701L26.6949 39.6706C26.4565 39.5388 26.1884 39.4702 25.916 39.4714H25.8781C25.637 39.4714 25.394 39.4714 25.1529 39.4714C24.8678 39.4643 24.586 39.533 24.3361 39.6706L18.5907 42.8781C16.7669 42.1966 15.0578 41.2406 13.5226 40.0432L13.5006 33.6283C13.4997 33.3309 13.4155 33.0397 13.2576 32.7876C13.1341 32.5884 13.0126 32.3892 12.899 32.178C12.7582 31.9248 12.5517 31.7142 12.3013 31.5684L6.60369 28.3231C6.30884 26.4581 6.30884 24.5583 6.60369 22.6932L12.2854 19.4499C12.5348 19.3081 12.7413 19.1017 12.8831 18.8523C12.9986 18.6531 13.1201 18.4419 13.2436 18.2427C13.4018 17.9914 13.486 17.7008 13.4867 17.404L13.5166 10.9792C15.0464 9.77776 16.7508 8.81707 18.5708 8.13032L24.3043 11.3298C24.5538 11.4681 24.8359 11.5369 25.1211 11.529C25.3621 11.529 25.6052 11.529 25.8462 11.529C26.1313 11.5361 26.4132 11.4674 26.663 11.3298L32.4085 8.12235C34.2323 8.80383 35.9414 9.75981 37.4766 10.9572L37.4985 17.3721C37.4995 17.6695 37.5837 17.9607 37.7416 18.2128C37.8651 18.412 37.9866 18.6112 38.1002 18.8224C38.241 19.0756 38.4474 19.2862 38.6978 19.432L44.3955 22.6773C44.6943 24.5438 44.6976 26.4456 44.4054 28.3132H44.4134Z" fill="black"/>
</svg>
