<svg width="24" height="24" viewBox="0 0 24 24" fill="none" xmlns="http://www.w3.org/2000/svg">
  <path d="M11.25 20.25C11.25 20.4489 11.171 20.6397 11.0303 20.7803C10.8897 20.921 10.6989 21 10.5 21H4.5C4.30109 21 4.11032 20.921 3.96967 20.7803C3.82902 20.6397 3.75 20.4489 3.75 20.25V3.75C3.75 3.55109 3.82902 3.36032 3.96967 3.21967C4.11032 3.07902 4.30109 3 4.5 3H10.5C10.6989 3 10.8897 3.07902 11.0303 3.21967C11.171 3.36032 11.25 3.55109 11.25 3.75V6C11.25 6.19891 11.171 6.38968 11.0303 6.53033C10.8897 6.67098 10.6989 6.75 10.5 6.75C10.3011 6.75 10.1103 6.67098 9.96967 6.53033C9.82902 6.38968 9.75 6.19891 9.75 6V4.5H5.25V19.5H9.75V18C9.75 17.8011 9.82902 17.6103 9.96967 17.4697C10.1103 17.329 10.3011 17.25 10.5 17.25C10.6989 17.25 10.8897 17.329 11.0303 17.4697C11.171 17.6103 11.25 17.8011 11.25 18V20.25Z" fill="currentColor"/>
  <path d="M19.5303 11.4697C19.671 11.6103 19.75 11.8011 19.75 12C19.75 12.1989 19.671 12.3897 19.5303 12.5303L16.0303 16.0303C15.8897 16.171 15.6989 16.25 15.5 16.25C15.3011 16.25 15.1103 16.171 14.9697 16.0303C14.829 15.8897 14.75 15.6989 14.75 15.5C14.75 15.3011 14.829 15.1103 14.9697 14.9697L17.4393 12.5H12C11.8011 12.5 11.6103 12.421 11.4697 12.2803C11.329 12.1397 11.25 11.9489 11.25 11.75C11.25 11.5511 11.329 11.3603 11.4697 11.2197C11.6103 11.079 11.8011 11 12 11H17.4393L14.9697 8.53033C14.829 8.38968 14.75 8.19891 14.75 8C14.75 7.80109 14.829 7.61032 14.9697 7.46967C15.1103 7.32902 15.3011 7.25 15.5 7.25C15.6989 7.25 15.8897 7.32902 16.0303 7.46967L19.5303 10.9697C19.671 11.1103 19.75 11.3011 19.75 11.5C19.75 11.6989 19.671 11.8897 19.5303 12.0303V11.4697Z" fill="currentColor"/>
</svg>
