<svg width="145" height="145" viewBox="0 0 145 145" fill="none" xmlns="http://www.w3.org/2000/svg">
<path d="M20.3906 87.0938H29.4531C30.9905 87.0938 32.4646 87.7049 33.5518 88.792C34.6389 89.8791 35.25 91.3532 35.25 92.8906V133.672C35.25 135.209 34.6389 136.683 33.5518 137.771C32.4646 138.858 30.9905 139.469 29.4531 139.469H20.3906C18.8532 139.469 17.3791 138.858 16.292 137.771C15.2049 136.683 14.5938 135.209 14.5938 133.672V92.8906C14.5938 91.3532 15.2049 89.8791 16.292 88.792C17.3791 87.7049 18.8532 87.0938 20.3906 87.0938ZM52.1094 5.53125H61.1719C62.7093 5.53125 64.1834 6.14237 65.2705 7.22949C66.3576 8.31662 66.9688 9.7907 66.9688 11.3281V133.672C66.9688 135.209 66.3576 136.683 65.2705 137.771C64.1834 138.858 62.7093 139.469 61.1719 139.469H52.1094C50.572 139.469 49.0979 138.858 48.0107 137.771C46.9236 136.683 46.3125 135.209 46.3125 133.672V11.3281C46.3125 9.7907 46.9236 8.31662 48.0107 7.22949C49.0979 6.14237 50.5719 5.53125 52.1094 5.53125ZM83.8281 59.9062H92.8906C94.4281 59.9062 95.9021 60.5174 96.9893 61.6045C98.0764 62.6916 98.6875 64.1657 98.6875 65.7031V133.672C98.6875 135.209 98.0764 136.683 96.9893 137.771C95.9021 138.858 94.428 139.469 92.8906 139.469H83.8281C82.2907 139.469 80.8166 138.858 79.7295 137.771C78.6424 136.683 78.0312 135.209 78.0312 133.672V65.7031C78.0312 64.1657 78.6424 62.6916 79.7295 61.6045C80.8166 60.5174 82.2907 59.9062 83.8281 59.9062ZM115.547 28.1875H124.609C126.147 28.1875 127.621 28.7986 128.708 29.8857C129.795 30.9729 130.406 32.447 130.406 33.9844V133.672C130.406 135.209 129.795 136.683 128.708 137.771C127.621 138.858 126.147 139.469 124.609 139.469H115.547C114.009 139.469 112.535 138.858 111.448 137.771C110.361 136.683 109.75 135.209 109.75 133.672V33.9844C109.75 32.447 110.361 30.9729 111.448 29.8857C112.535 28.7986 114.009 28.1875 115.547 28.1875Z" fill="#001A52" stroke="#001A52" stroke-width="2"/>
</svg>
